<svg viewBox="0 0 500 500" fill="none" xmlns="http://www.w3.org/2000/svg">
    <path fill-rule="evenodd" clip-rule="evenodd"
        d="M200 16C200 7.16344 207.163 0 216 0H484C492.837 0 500 7.16345 500 16V284C500 292.837 492.837 300 484 300H416C407.163 300 400 307.163 400 316V384C400 392.837 407.163 400 416 400H484C492.837 400 500 407.163 500 416V484C500 492.837 492.837 500 484 500H416C407.163 500 400 492.837 400 484V416C400 407.163 392.837 400 384 400H316C307.163 400 300 392.837 300 384V316C300 307.163 292.837 300 284 300H216C207.163 300 200 307.163 200 316V400V484C200 492.837 192.837 500 184 500H116C107.163 500 100 492.837 100 484V416C100 407.163 92.8366 400 84 400H16C7.16344 400 0 392.837 0 384V316C0 307.163 7.16345 300 16 300H100H184C192.837 300 200 292.837 200 284V216C200 207.163 192.837 200 184 200H116C107.163 200 100 192.837 100 184V116C100 107.163 92.8366 100 84 100H16C7.16344 100 0 92.8366 0 84V16C0 7.16344 7.16345 0 16 0H84C92.8366 0 100 7.16344 100 16V84C100 92.8366 107.163 100 116 100H184C192.837 100 200 92.8366 200 84V16ZM284 200C292.837 200 300 207.163 300 216V284C300 292.837 307.163 300 316 300H384C392.837 300 400 292.837 400 284V200V116C400 107.163 392.837 100 384 100H300H216C207.163 100 200 107.163 200 116V184C200 192.837 207.163 200 216 200H284Z"
        fill="#8DC89A" />
</svg>