<svg viewBox="0 0 335 394" fill="none" xmlns="http://www.w3.org/2000/svg">
    <path fill-rule="evenodd" clip-rule="evenodd"
        d="M324.96 0H272L187.04 127.434V0H145.92V127.434L61.6 0H8.8L63.36 78.72L2.08 193.516V201.44L58.08 305.28L0 393.76H51.04L145.76 243.84V393.76H187.2V247.52L282.08 393.76H334.08L274.72 305.28L331.04 201.12V194.56L269.92 78.88L324.96 0ZM44.16 196.8L86.24 115.2L137.44 188.32L81.76 269.44L44.16 199.04V196.8ZM244.96 114.08L288.16 196V199.2L250.88 269.92L194.08 187.36L244.96 114.08Z"
        fill="white" />
</svg>