<svg viewBox="0 0 396 429" fill="none" xmlns="http://www.w3.org/2000/svg">
    <path d="M66 33V0H99V33H66Z" fill="#320D07" />
    <path d="M66 66V33H99V66H66Z" fill="#FE5C01" />
    <path d="M33 66V33H66V66H33Z" fill="#320D07" />
    <path d="M33 99V66H66V99H33Z" fill="#FE5C01" />
    <path d="M33 132V99H66V132H33Z" fill="#FE5C01" />
    <path d="M33 165V132H66V165H33Z" fill="#FE5C01" />
    <path d="M33 198V165H66V198H33Z" fill="#320D07" />
    <path d="M33 231V198H66V231H33Z" fill="#320D07" />
    <path d="M33 297V264H66V297H33Z" fill="#320D07" />
    <path d="M33 264V231H66V264H33Z" fill="#320D07" />
    <path d="M33 330V297H66V330H33Z" fill="#320D07" />
    <path d="M33 363V330H66V363H33Z" fill="#320D07" />
    <path d="M165 231V198H198V231H165Z" fill="#320D07" />
    <path d="M165 297V264H198V297H165Z" fill="#F28C24" />
    <path d="M165 264V231H198V264H165Z" fill="#FE5C01" />
    <path d="M165 330V297H198V330H165Z" fill="#F2C124" />
    <path d="M165 363V330H198V363H165Z" fill="#FE5C01" />
    <path d="M165 396V363H198V396H165Z" fill="#320D07" />
    <path d="M0 99V66H33V99H0Z" fill="#320D07" />
    <path d="M0 132V99H33V132H0Z" fill="#320D07" />
    <path d="M0 165V132H33V165H0Z" fill="#320D07" />
    <path d="M66 99V66H99V99H66Z" fill="#320D07" />
    <path d="M66 132V99H99V132H66Z" fill="#F28C24" />
    <path d="M66 165V132H99V165H66Z" fill="#F28C24" />
    <path d="M66 198V165H99V198H66Z" fill="#FE5C01" />
    <path d="M66 231V198H99V231H66Z" fill="#FE5C01" />
    <path d="M66 297V264H99V297H66Z" fill="#FE5C01" />
    <path d="M66 264V231H99V264H66Z" fill="#FE5C01" />
    <path d="M66 330V297H99V330H66Z" fill="#FE5C01" />
    <path d="M66 363V330H99V363H66Z" fill="#FE5C01" />
    <path d="M66 396V363H99V396H66Z" fill="#320D07" />
    <path d="M198 231V198H231V231H198Z" fill="#FE5C01" />
    <path d="M198 297V264H231V297H198Z" fill="#F2C124" />
    <path d="M198 264V231H231V264H198Z" fill="#F2C124" />
    <path d="M198 330V297H231V330H198Z" fill="#F28C24" />
    <path d="M198 363V330H231V363H198Z" fill="#320D07" />
    <path d="M297 231V198H330V231H297Z" fill="#F2C124" />
    <path d="M297 297V264H330V297H297Z" fill="#F2C124" />
    <path d="M297 264V231H330V264H297Z" fill="#F2C124" />
    <path d="M297 330V297H330V330H297Z" fill="#F2C124" />
    <path d="M297 363V330H330V363H297Z" fill="#F28C24" />
    <path d="M297 396V363H330V396H297Z" fill="#FE5C01" />
    <path d="M297 429V396H330V429H297Z" fill="#320D07" />
    <path d="M297 198V165H330V198H297Z" fill="#F2C124" />
    <path d="M297 165V132H330V165H297Z" fill="#F2C124" />
    <path d="M297 132V99H330V132H297Z" fill="#FE5C01" />
    <path d="M297 99V66H330V99H297Z" fill="#320D07" />
    <path d="M99 132V99H132V132H99Z" fill="#320D07" />
    <path d="M99 165V132H132V165H99Z" fill="#F2C124" />
    <path d="M99 198V165H132V198H99Z" fill="#F2C124" />
    <path d="M99 231V198H132V231H99Z" fill="#F2C124" />
    <path d="M99 297V264H132V297H99Z" fill="#F2C124" />
    <path d="M99 264V231H132V264H99Z" fill="#F2C124" />
    <path d="M99 330V297H132V330H99Z" fill="#F2C124" />
    <path d="M99 363V330H132V363H99Z" fill="#F28C24" />
    <path d="M99 396V363H132V396H99Z" fill="#FE5C01" />
    <path d="M99 429V396H132V429H99Z" fill="#320D07" />
    <path d="M231 231V198H264V231H231Z" fill="#320D07" />
    <path d="M231 297V264H264V297H231Z" fill="#F28C24" />
    <path d="M231 264V231H264V264H231Z" fill="#FE5C01" />
    <path d="M231 330V297H264V330H231Z" fill="#F2C124" />
    <path d="M231 363V330H264V363H231Z" fill="#FE5C01" />
    <path d="M231 396V363H264V396H231Z" fill="#320D07" />
    <path d="M330 231V198H363V231H330Z" fill="#FE5C01" />
    <path d="M330 297V264H363V297H330Z" fill="#FE5C01" />
    <path d="M330 264V231H363V264H330Z" fill="#FE5C01" />
    <path d="M330 330V297H363V330H330Z" fill="#FE5C01" />
    <path d="M330 363V330H363V363H330Z" fill="#FE5C01" />
    <path d="M330 396V363H363V396H330Z" fill="#320D07" />
    <path d="M330 198V165H363V198H330Z" fill="#FE5C01" />
    <path d="M330 165V132H363V165H330Z" fill="#FE5C01" />
    <path d="M330 132V99H363V132H330Z" fill="#320D07" />
    <path d="M132 165V132H165V165H132Z" fill="#320D07" />
    <path d="M132 198V165H165V198H132Z" fill="#320D07" />
    <path d="M132 231V198H165V231H132Z" fill="#320D07" />
    <path d="M132 297V264H165V297H132Z" fill="#FE5C01" />
    <path d="M132 264V231H165V264H132Z" fill="#320D07" />
    <path d="M132 330V297H165V330H132Z" fill="#F28C24" />
    <path d="M132 363V330H165V363H132Z" fill="#F2C124" />
    <path d="M132 396V363H165V396H132Z" fill="#FE5C01" />
    <path d="M132 429V396H165V429H132Z" fill="#320D07" />
    <path d="M264 231V198H297V231H264Z" fill="#320D07" />
    <path d="M264 297V264H297V297H264Z" fill="#FE5C01" />
    <path d="M264 264V231H297V264H264Z" fill="#320D07" />
    <path d="M264 330V297H297V330H264Z" fill="#F28C24" />
    <path d="M264 363V330H297V363H264Z" fill="#F2C124" />
    <path d="M264 396V363H297V396H264Z" fill="#FE5C01" />
    <path d="M264 429V396H297V429H264Z" fill="#320D07" />
    <path d="M264 198V165H297V198H264Z" fill="#320D07" />
    <path d="M264 165V132H297V165H264Z" fill="#F28C24" />
    <path d="M264 132V99H297V132H264Z" fill="#FE5C01" />
    <path d="M264 99V66H297V99H264Z" fill="#320D07" />
    <path d="M231 165V132H264V165H231Z" fill="#320D07" />
    <path d="M231 132V99H264V132H231Z" fill="#F28C24" />
    <path d="M198 132V99H231V132H198Z" fill="#320D07" />
    <path d="M231 99V66H264V99H231Z" fill="#FE5C01" />
    <path d="M231 66V33H264V66H231Z" fill="#320D07" />
    <path d="M198 99V66H231V99H198Z" fill="#320D07" />
    <path d="M198 198V165H231V198H198Z" fill="#320D07" />
    <path d="M363 231V198H396V231H363Z" fill="#320D07" />
    <path d="M363 297V264H396V297H363Z" fill="#320D07" />
    <path d="M363 264V231H396V264H363Z" fill="#320D07" />
    <path d="M363 330V297H396V330H363Z" fill="#320D07" />
    <path d="M363 363V330H396V363H363Z" fill="#320D07" />
    <path d="M363 198V165H396V198H363Z" fill="#320D07" />
    <path d="M363 165V132H396V165H363Z" fill="#320D07" />
    <path d="M99 66V33H132V66H99Z" fill="#320D07" />
</svg>